<svg xmlns="http://www.w3.org/2000/svg" xmlns:xlink="http://www.w3.org/1999/xlink" width="923.11" height="912.343" viewBox="0 0 923.11 912.343">
  <defs>
    <linearGradient id="linear-gradient" x1="0.5" y1="1" x2="0.5" gradientUnits="objectBoundingBox">
      <stop offset="0" stop-color="gray" stop-opacity="0.251"/>
      <stop offset="0.54" stop-color="gray" stop-opacity="0.122"/>
      <stop offset="1" stop-color="gray" stop-opacity="0.102"/>
    </linearGradient>
    <linearGradient id="linear-gradient-2" x1="0.5" y1="1" x2="0.5" y2="0" xlink:href="#linear-gradient"/>
  </defs>
  <g id="biostatstars_img" transform="translate(-925.671 -88.773)">
    <path id="Path_168" data-name="Path 168" d="M310.617,4.385C505.259,7.6,596.2,26.321,599.473,300.487S499.131,712.422,304.49,709.205,6.939,580.832,3.668,306.666,115.976,1.168,310.617,4.385Z" transform="translate(1458.594 83.315) rotate(49)" fill="#fff" opacity="0.11"/>
    <g id="bio-stat" transform="translate(1076.867 332.109)">
      <g id="undraw_medicine_b1ol">
        <ellipse id="Ellipse_1" data-name="Ellipse 1" cx="50.238" cy="7.874" rx="50.238" ry="7.874" transform="translate(138.927 377.875)" fill="#3e69dc" opacity="0.1"/>
        <ellipse id="Ellipse_2" data-name="Ellipse 2" cx="62.689" cy="7.874" rx="62.689" ry="7.874" transform="translate(399.561 378.096)" fill="#6c63ff" opacity="0.1"/>
        <path id="Path_1" data-name="Path 1" d="M60.072,396.83H112.4v69.6H63.9c-.129.714-.253,1.434-.387,2.154H112.4v56.132c-.088-.025-.165-.055-.247-.085-1.382-.533-2.753-1.1-4.125-1.7l-.876-.388q-2.062-.951-4.125-2.013c-.479-.247-.959-.5-1.433-.765a85.545,85.545,0,0,1-20.561-15.678c-.175-.166-.34-.342-.516-.5-.835-.886-1.655-1.781-2.449-2.7l-.876-1.006c-.938-1.122-1.846-2.274-2.727-3.442-.129-.171-.253-.342-.387-.5a74.4,74.4,0,0,1-8.868-15.648c-.072-.166-.134-.347-.2-.5q-1.062-2.667-1.882-5.384c-.237-.76-.464-1.509-.66-2.3-.072-.232-.134-.458-.191-.684C59.345,460.263,59,448.675,59,437.168v-4.025c0-4.654.057-9.339.139-14.018,0-1.213.052-2.42.077-3.638q.108-4.634.309-9.268c.031-.86.072-1.716.119-2.571a14.215,14.215,0,0,1,.077-1.479C59.846,400.377,59.949,398.6,60.072,396.83Z" transform="translate(-53.184 -226.659)" fill="#6c63ff" opacity="0.1"/>
        <path id="Path_2" data-name="Path 2" d="M135.6,207.852H106.9a212.614,212.614,0,0,1,15.266-20.509c4.264-5.112,8.765-10.093,13.436-14.893Z" transform="translate(-76.388 -115.177)" fill="#6c63ff" opacity="0.1"/>
        <path id="Path_3" data-name="Path 3" d="M113.561,247.09v73.189H61.4c0-.211.036-.428.052-.639.046-.579.093-1.157.144-1.731.057-.674.119-1.354.186-2.013s.139-1.464.217-2.194.15-1.469.237-2.2.165-1.459.258-2.184.175-1.459.273-2.184c.077-.6.16-1.2.242-1.806.119-.85.242-1.706.376-2.551a2.3,2.3,0,0,1,.057-.377,170.362,170.362,0,0,1,3.841-18.375,133.657,133.657,0,0,1,6.47-18.617,138.577,138.577,0,0,1,9.734-18.295Z" transform="translate(-54.347 -152.262)" fill="#6c63ff" opacity="0.1"/>
        <path id="Path_4" data-name="Path 4" d="M186.8,228.79V298.4H298.561V228.79Zm0,71.755V360.32c.639.131,1.273.257,1.9.362.856.161,1.707.307,2.578.433.165.025.335.05.516.065.34.055.691.1,1.031.146.861.116,1.717.211,2.578.287.407.04.82.075,1.232.106l1,.076h0c.541.04,1.078.07,1.609.086.33,0,.66.03,1,.04h3.676c.443,0,.887,0,1.325-.04h.031a7.12,7.12,0,0,0,.923-.04,2.215,2.215,0,0,0,.258,0,5.462,5.462,0,0,0,.763-.035h.18l1.727-.131c.567-.05,1.139-.116,1.717-.176l1.176-.136a105.037,105.037,0,0,0,14.153-2.938c10.425-2.838,20.623-6.808,31.043-9.716,13.472-3.749,28.357-5.59,41.375-1.006V300.545ZM298.561,151.3V58.632a147.052,147.052,0,0,0-36.312,4.156C233.949,69.727,208.557,84.776,186.8,104v47.3h5.609v2.148H186.8v73.2H298.561V153.447H215.44V151.3ZM442.113,120a47.147,47.147,0,0,1-20.257-5.746c-12.039-6.39-21.654-16.257-32.4-24.584-22.324-17.344-50.011-27.81-78.414-30.406V151.3H470.588l.4-.408Zm14.534-2.516,15.411,16.5V113.154c-5.161.624-9.683,2.108-15.39,4.307Zm15.411,257.682V300.545H439.221c-.088-.317-.175-.639-.278-.961.1.322.18.644.273.961H311.064v53.964c1.217.881,2.418,1.806,3.609,2.747h0c1.284,1.006,2.552,2.068,3.826,3.109l1.284,1.036c.614.5,1.232,1.006,1.856,1.479q1.856,1.469,3.748,2.9c.624.5,1.263.956,1.9,1.429a259.144,259.144,0,0,0,31.775,20.282q3.728,2.013,7.522,3.93c1.686.84,3.382,1.676,5.084,2.486q3.836,1.826,7.734,3.522h0a289.329,289.329,0,0,0,75.274,21.4q8.656,1.248,17.38,1.962V375.159h.516ZM311.064,153.447v73.194H472.078V153.447Zm0,75.343V298.4H472.078V228.79ZM484.576,113.064V136.3l19.669-21.062q-9.775-1.54-19.669-2.2Zm0,115.751V298.4H641.182V228.79ZM640.609,380.688l.552-80.143H484.576V421.59a287.765,287.765,0,0,0,30.264-.352h.175q7.218-.443,14.369-1.288h.108a269.8,269.8,0,0,0,73.83-19.226m68.056-160.472c-.588-1.354-1.2-2.7-1.825-4.025-1.165-2.516-2.4-4.961-3.666-7.406H653.669V298.4h30.893c-.016-19.7-5.125-39.83-13.168-58.17Zm-17.71,60.319V369.5a98.955,98.955,0,0,0,21.35-28.1,94.677,94.677,0,0,0,9.518-40.841Zm0-92.038v18.114h11.075a195.275,195.275,0,0,0-11.059-18.139ZM547.46,126.719c-.815-.3-1.629-.609-2.449-.906a227.718,227.718,0,0,0-26.454-7.759l-30.1,32.237h0l-.578.6.387.413H595.393a231.134,231.134,0,0,0-47.918-24.609Zm51.073,26.753H486.772l-2.2,1.962v71.207H641.2V192.15a221.116,221.116,0,0,0-42.653-38.7Z" transform="translate(-115.094 -58.624)" fill="#6c63ff" opacity="0.1"/>
        <path id="Path_5" data-name="Path 5" d="M113.561,320.46v36.273H61.4c0-.211.036-.428.052-.639.046-.579.093-1.157.144-1.731.057-.674.119-1.353.186-2.013s.139-1.464.217-2.194.15-1.469.237-2.2.165-1.459.258-2.184.175-1.459.273-2.184c.077-.6.16-1.2.242-1.806.119-.85.242-1.706.376-2.551a2.3,2.3,0,0,1,.057-.377,170.367,170.367,0,0,1,3.841-18.375Z" transform="translate(-54.347 -188.715)" fill="#3e69dc" opacity="0.1"/>
        <path id="Path_6" data-name="Path 6" d="M60.072,396.83H112.4v69.6H63.9c-.129.714-.253,1.434-.387,2.154H112.4v56.132c-.088-.025-.165-.055-.247-.085-1.382-.533-2.753-1.1-4.125-1.7l-.876-.388q-2.062-.951-4.125-2.013c-.479-.247-.959-.5-1.433-.765a85.545,85.545,0,0,1-20.561-15.678c-.175-.166-.34-.342-.516-.5-.835-.886-1.655-1.781-2.449-2.7l-.876-1.006c-.938-1.122-1.846-2.274-2.727-3.442-.129-.171-.253-.342-.387-.5a74.4,74.4,0,0,1-8.868-15.648c-.072-.166-.134-.347-.2-.5q-1.062-2.667-1.882-5.384c-.237-.76-.464-1.509-.66-2.3-.072-.232-.134-.458-.191-.684C59.345,460.263,59,448.675,59,437.168v-4.025c0-4.654.057-9.339.139-14.018,0-1.213.052-2.42.077-3.638q.108-4.634.309-9.268c.031-.86.072-1.716.119-2.571a14.215,14.215,0,0,1,.077-1.479C59.846,400.377,59.949,398.6,60.072,396.83Z" transform="translate(-53.184 -226.659)" fill="#6c63ff" opacity="0.1"/>
        <path id="Path_7" data-name="Path 7" d="M178.9,188.313v62.714H139.56V188.313h5.609V167.08H168.2v21.233Z" transform="translate(-67.854 -83.009)" fill="#3e69dc" opacity="0.1"/>
        <rect id="Rectangle_1" data-name="Rectangle 1" width="39.338" height="69.602" transform="translate(71.711 170.166)" fill="#3e69dc" opacity="0.1"/>
        <path id="Path_8" data-name="Path 8" d="M186.8,539.44h39.344V597.3a104.862,104.862,0,0,1-14.153,2.933l-1.176.141c-.577.065-1.15.121-1.717.176s-1.155.1-1.727.131h-.18c-.247,0-.516.03-.758.035h-.263c-.309,0-.619.03-.928.04h0c-.438.025-.876.03-1.325.035h-3.65l-1-.035c-.516,0-1.072-.055-1.609-.09h0l-.99-.071-1.232-.111c-.866-.075-1.727-.171-2.578-.287l-1.031-.141-.516-.07c-.861-.131-1.712-.272-2.578-.433-.634-.106-1.263-.236-1.9-.362Z" transform="translate(-115.094 -297.513)" fill="#3e69dc" opacity="0.1"/>
        <rect id="Rectangle_2" data-name="Rectangle 2" width="32.44" height="70.115" transform="translate(324.544 97.898)" fill="#6c63ff" opacity="0.1"/>
        <path id="Path_9" data-name="Path 9" d="M541.6,338.19V407.8H380.58V377.773h85.766v17.711h42.808V338.19Z" transform="translate(-184.61 -168.024)" fill="#6c63ff" opacity="0.1"/>
        <path id="Path_10" data-name="Path 10" d="M589.35,613.119h-.516v45.662q-8.713-.72-17.375-1.957a289.335,289.335,0,0,1-75.3-21.445q-10.379-4.559-20.334-9.952a260.183,260.183,0,0,1-31.78-20.282q-3.795-2.838-7.491-5.806c-1.707-1.374-3.4-2.783-5.12-4.151-1.191-.941-2.392-1.867-3.609-2.752V538.491H555.966c-.088-.322-.175-.644-.268-.961.1.317.191.639.278.961h32.858v74.6C589.01,613.094,589.18,613.109,589.35,613.119Z" transform="translate(-231.85 -296.564)" fill="#6c63ff" opacity="0.1"/>
        <path id="Path_11" data-name="Path 11" d="M884.359,217.625H863.22v-6.41H872.7V192.12q1.232.438,2.454.9v18.194h9.208Z" transform="translate(-442.768 -124.95)" fill="#6c63ff" opacity="0.1"/>
        <path id="Path_12" data-name="Path 12" d="M887.4,320.279H783.622l.036.025-.046-.025H764.36V250.164h5.455V301.99h24.928V271.3h20.592V247.09h21.139v24.227h20.592V302.01H887.4Z" transform="translate(-394.878 -152.262)" fill="#6c63ff" opacity="0.1"/>
        <path id="Path_13" data-name="Path 13" d="M764.36,396.82v69.607H887.4V396.82ZM920.8,548.361l.17-55.1H887.4V468.611H764.36V589.62a287.748,287.748,0,0,0,30.264-.352h.175q7.218-.443,14.369-1.288h.108a269.8,269.8,0,0,0,73.83-19.226" transform="translate(-394.878 -226.654)" fill="#6c63ff" opacity="0.1"/>
        <path id="Path_14" data-name="Path 14" d="M1094.535,539.44h28.7a94.972,94.972,0,0,1-9.523,40.836,98.985,98.985,0,0,1-21.345,28.1V564.1h2.165Z" transform="translate(-553.774 -297.513)" fill="#6c63ff" opacity="0.1"/>
        <path id="Path_15" data-name="Path 15" d="M1125.287,477.72H1096.57V419.55h15.539C1120.153,437.89,1125.262,458.016,1125.287,477.72Z" transform="translate(-555.809 -237.947)" fill="#6c63ff" opacity="0.1"/>
        <rect id="Rectangle_3" data-name="Rectangle 3" width="17.38" height="21.983" transform="translate(339.609 117.39)" fill="#6c63ff" opacity="0.1"/>
        <rect id="Rectangle_4" data-name="Rectangle 4" width="17.38" height="5.062" transform="translate(339.609 162.956)" fill="#6c63ff" opacity="0.1"/>
        <rect id="Rectangle_5" data-name="Rectangle 5" width="17.38" height="14.768" transform="translate(339.609 170.166)" fill="#6c63ff" opacity="0.1"/>
        <rect id="Rectangle_6" data-name="Rectangle 6" width="17.38" height="21.983" transform="translate(339.609 208.522)" fill="#6c63ff" opacity="0.1"/>
        <rect id="Rectangle_7" data-name="Rectangle 7" width="17.38" height="21.983" transform="translate(339.609 254.088)" fill="#6c63ff" opacity="0.1"/>
        <path id="Path_16" data-name="Path 16" d="M723.795,671.041a2.931,2.931,0,0,1,.516.03h-.516v5.107H706.42V654.17h17.375Z" transform="translate(-366.811 -354.516)" fill="#6c63ff" opacity="0.1"/>
        <path id="Path_17" data-name="Path 17" d="M723.795,744.71v16.982q-8.713-.72-17.375-1.957V744.71Z" transform="translate(-366.811 -399.5)" fill="#6c63ff" opacity="0.1"/>
        <rect id="Rectangle_8" data-name="Rectangle 8" width="74.485" height="1.615" transform="translate(195.97 238.158)" fill="#6c63ff" opacity="0.1"/>
        <rect id="Rectangle_9" data-name="Rectangle 9" width="74.485" height="6.189" transform="translate(195.97 241.922)" fill="#6c63ff" opacity="0.1"/>
        <rect id="Rectangle_10" data-name="Rectangle 10" width="74.485" height="9.952" transform="translate(195.97 268.398)" fill="#6c63ff" opacity="0.1"/>
        <path id="Path_18" data-name="Path 18" d="M505.686,652.15V662.1h-58.26q-3.795-2.828-7.5-5.806c-1.706-1.374-3.4-2.782-5.12-4.146Z" transform="translate(-235.236 -353.512)" fill="#6c63ff" opacity="0.1"/>
        <path id="Path_19" data-name="Path 19" d="M547.4,712.225v9.943h-6.151q-10.368-4.564-20.329-9.958Z" transform="translate(-276.95 -383.353)" fill="#6c63ff" opacity="0.1"/>
        <rect id="Rectangle_11" data-name="Rectangle 11" width="14.663" height="14.31" transform="translate(399.751 176.914)" fill="#6c63ff" opacity="0.1"/>
        <rect id="Rectangle_12" data-name="Rectangle 12" width="14.663" height="14.31" transform="translate(82.27 110.24)" fill="#6c63ff" opacity="0.1"/>
        <rect id="Rectangle_13" data-name="Rectangle 13" width="14.663" height="14.31" transform="translate(82.27 143.479)" fill="#6c63ff" opacity="0.1"/>
        <rect id="Rectangle_14" data-name="Rectangle 14" width="14.663" height="14.31" transform="translate(82.27 176.717)" fill="#6c63ff" opacity="0.1"/>
        <rect id="Rectangle_15" data-name="Rectangle 15" width="14.663" height="14.31" transform="translate(82.27 209.951)" fill="#6c63ff" opacity="0.1"/>
        <rect id="Rectangle_16" data-name="Rectangle 16" width="14.663" height="14.31" transform="translate(82.27 243.19)" fill="#6c63ff" opacity="0.1"/>
        <rect id="Rectangle_17" data-name="Rectangle 17" width="14.663" height="14.31" transform="translate(82.27 276.428)" fill="#6c63ff" opacity="0.1"/>
        <rect id="Rectangle_18" data-name="Rectangle 18" width="14.663" height="14.31" transform="translate(455.727 176.914)" fill="#6c63ff" opacity="0.1"/>
        <rect id="Rectangle_19" data-name="Rectangle 19" width="14.663" height="14.31" transform="translate(399.751 212.21)" fill="#6c63ff" opacity="0.1"/>
        <rect id="Rectangle_20" data-name="Rectangle 20" width="14.663" height="14.31" transform="translate(455.727 212.21)" fill="#6c63ff" opacity="0.1"/>
        <rect id="Rectangle_21" data-name="Rectangle 21" width="14.663" height="14.31" transform="translate(399.751 247.502)" fill="#6c63ff" opacity="0.1"/>
        <rect id="Rectangle_22" data-name="Rectangle 22" width="14.663" height="14.31" transform="translate(455.727 247.502)" fill="#6c63ff" opacity="0.1"/>
        <rect id="Rectangle_23" data-name="Rectangle 23" width="14.663" height="14.31" transform="translate(399.751 282.798)" fill="#6c63ff" opacity="0.1"/>
        <rect id="Rectangle_24" data-name="Rectangle 24" width="14.663" height="14.31" transform="translate(455.727 282.798)" fill="#6c63ff" opacity="0.1"/>
        <rect id="Rectangle_25" data-name="Rectangle 25" width="14.663" height="14.31" transform="translate(399.751 318.095)" fill="#6c63ff" opacity="0.1"/>
        <rect id="Rectangle_26" data-name="Rectangle 26" width="14.663" height="14.31" transform="translate(455.727 318.095)" fill="#6c63ff" opacity="0.1"/>
        <path id="Path_20" data-name="Path 20" d="M775.83,711.558V702.33h14.658v7.915Z" transform="translate(-376.079 -348.944)" fill="#6c63ff" opacity="0.1"/>
        <path id="Path_21" data-name="Path 21" d="M65.24,357v8.186h50.181V357Zm5,7.673H66.147V357.5h4.125Zm5,0H71.112V357.5h4.125Zm4.986,0H76.1V357.5h4.125Zm5,0H81.1V357.5h4.125Zm4.991,0H86.085V357.5h4.125Zm5,0H91.081V357.5h4.125Zm5,0H96.077V357.5H100.2Zm4.991,0h-4.125V357.5h4.125Zm4.991,0h-4.125V357.5h4.125Zm4.991,0h-4.125V357.5h4.125Z" transform="translate(-56.207 -206.87)" fill="#6c63ff" opacity="0.1"/>
        <path id="Path_22" data-name="Path 22" d="M65.24,404.34v8.186h50.181V404.34Zm5,7.668H66.147v-7.15h4.125Zm5,0H71.112v-7.15h4.125Zm4.986,0H76.1v-7.15h4.125Zm5,0H81.1v-7.15h4.125Zm4.991,0H86.085v-7.15h4.125Zm5,0H91.081v-7.15h4.125Zm5,0H96.077v-7.15H100.2Zm4.991,0h-4.125v-7.15h4.125Zm4.991,0h-4.125v-7.15h4.125Zm4.991,0h-4.125v-7.15h4.125Z" transform="translate(-56.207 -230.39)" fill="#6c63ff" opacity="0.1"/>
        <path id="Path_23" data-name="Path 23" d="M65.24,451.7v8.2h50.181v-8.2Zm5,7.668H66.147v-7.155h4.125Zm5,0H71.112v-7.155h4.125Zm4.986,0H76.1v-7.155h4.125Zm5,0H81.1v-7.155h4.125Zm4.991,0H86.085v-7.155h4.125Zm5,0H91.081v-7.155h4.125Zm5,0H96.077v-7.155H100.2Zm4.991,0h-4.125v-7.155h4.125Zm4.991,0h-4.125v-7.155h4.125Zm4.991,0h-4.125v-7.155h4.125Z" transform="translate(-56.207 -253.92)" fill="#6c63ff" opacity="0.1"/>
        <path id="Path_24" data-name="Path 24" d="M65.24,499.06v8.176h50.181V499.06Zm5,7.668H66.147v-7.16h4.125Zm5,0H71.112v-7.16h4.125Zm4.986,0H76.1v-7.16h4.125Zm5,0H81.1v-7.16h4.125Zm4.991,0H86.085v-7.16h4.125Zm5,0H91.081v-7.16h4.125Zm5,0H96.077v-7.16H100.2Zm4.991,0h-4.125v-7.16h4.125Zm4.991,0h-4.125v-7.16h4.125Zm4.991,0h-4.125v-7.16h4.125Z" transform="translate(-56.207 -277.451)" fill="#6c63ff" opacity="0.1"/>
        <path id="Path_25" data-name="Path 25" d="M65.66,546.41c.2.77.428,1.54.665,2.3v-1.786H70.45v7.155H68.243c.067.166.134.347.2.5h47.18V546.41Zm9.8,7.668H71.331v-7.155h4.125Zm4.986,0H76.317v-7.155h4.125Zm5,0H81.3v-7.155h4.125Zm4.991,0H86.3v-7.155h4.125Zm5,0H91.3v-7.155h4.125Zm5,0H96.3v-7.155h4.125Zm4.991,0h-4.125v-7.155h4.125Zm4.991,0h-4.125v-7.155H110.4Zm4.991,0h-4.125v-7.155h4.125Z" transform="translate(-56.411 -300.976)" fill="#6c63ff" opacity="0.1"/>
        <path id="Path_26" data-name="Path 26" d="M88.26,593.77c.129.161.253.342.387.5h2.727v3.437c.294.342.583.684.882,1.006v-4.463H96.38v7.18H94.71c.165.166.325.342.516.5h31.362V593.77Zm13.1,7.663H97.236v-7.15h4.125Zm5,0h-4.125v-7.15h4.125Zm5,0h-4.125v-7.15h4.125Zm4.991,0h-4.125v-7.15h4.125Zm4.991,0H117.21v-7.15h4.125Zm4.991,0H122.2v-7.15h4.125Z" transform="translate(-67.359 -324.507)" fill="#6c63ff" opacity="0.1"/>
        <path id="Path_27" data-name="Path 27" d="M141.65,641.12c.469.262.949.5,1.433.765v-.252h4.125V643.9l.876.4v-2.662h4.125v4.352a1.307,1.307,0,0,0,.248.091V641.12Z" transform="translate(-93.222 -348.032)" fill="#6c63ff" opacity="0.1"/>
        <g id="undraw_Data_trends_re_2cdy" transform="translate(140.625 28.602)">
          <path id="Path_144" data-name="Path 144" d="M497.23,649.045l-9.585-4.036-6.575-48.05H393.508l-7.127,47.854-8.575,4.288a2.036,2.036,0,0,0,.911,3.858H496.44a2.036,2.036,0,0,0,.79-3.913Z" transform="translate(-213.81 -293.046)" fill="#e6e6e6"/>
          <path id="Path_145" data-name="Path 145" d="M567.954,570.554H137.826a8.522,8.522,0,0,1-8.5-8.522V501.379H576.456v60.654a8.522,8.522,0,0,1-8.5,8.522Z" transform="translate(-128.931 -260.249)" fill="#ccc"/>
          <path id="Path_146" data-name="Path 146" d="M576.7,404.077H128.726V144.553A10.285,10.285,0,0,1,139,134.28H566.428A10.285,10.285,0,0,1,576.7,144.553Z" transform="translate(-128.726 -134.28)" fill="#3f3d56"/>
          <path id="Path_147" data-name="Path 147" d="M559.785,395.08H165.323a7.928,7.928,0,0,1-7.92-7.919V170.876a7.929,7.929,0,0,1,7.92-7.92H559.785a7.929,7.929,0,0,1,7.92,7.92V387.161A7.928,7.928,0,0,1,559.785,395.08Z" transform="translate(-138.566 -144.12)" fill="#fff"/>
          <path id="Path_148" data-name="Path 148" d="M521.807,681.927H300.153a1.029,1.029,0,0,1-1.011-.745,1,1,0,0,1,.97-1.26H521.725a1.061,1.061,0,0,1,1.062.784,1,1,0,0,1-.98,1.221Z" transform="translate(-187.192 -321.515)" fill="#ccc"/>
          <rect id="Rectangle_28" data-name="Rectangle 28" width="95.241" height="72.762" transform="translate(321.767 53.803)" fill="#f2f2f2"/>
          <rect id="Rectangle_29" data-name="Rectangle 29" width="85.776" height="65.531" transform="translate(326.5 57.418)" fill="#fff"/>
          <path id="Path_149" data-name="Path 149" d="M693.106,271.849h.034a22.87,22.87,0,0,0,.512-45.644.522.522,0,0,0-.4.137.516.516,0,0,0-.169.378l-.5,44.6a.523.523,0,0,0,.518.528Z" transform="translate(-322.213 -165.823)" fill="#3f3d56"/>
          <path id="Path_150" data-name="Path 150" d="M662.809,237.433a.674.674,0,0,1,.473.2l15.354,15.7a.666.666,0,0,1,.191.476l-.239,21.342a.664.664,0,0,1-.217.486.674.674,0,0,1-.507.176A23.019,23.019,0,0,1,662.3,237.661a.674.674,0,0,1,.487-.228Z" transform="translate(-309.851 -169.676)" fill="#e6e6e6"/>
          <path id="Path_151" data-name="Path 151" d="M682.377,225.927a.676.676,0,0,1,.459.188.664.664,0,0,1,.206.491l-.216,19.256a.671.671,0,0,1-1.15.461l-13.4-13.7a.672.672,0,0,1,.036-.973,23.067,23.067,0,0,1,14.021-5.72Z" transform="translate(-313.805 -165.728)" fill="#3e69dc"/>
          <path id="Path_152" data-name="Path 152" d="M675.042,307.605a4.108,4.108,0,1,1-4.061-4.153A4.108,4.108,0,0,1,675.042,307.605Z" transform="translate(-313.373 -192.33)" fill="#6c63ff"/>
          <path id="Path_153" data-name="Path 153" d="M692.908,307.806a4.108,4.108,0,1,1-4.061-4.153A4.108,4.108,0,0,1,692.908,307.806Z" transform="translate(-319.504 -192.399)" fill="#3f3d56"/>
          <path id="Path_154" data-name="Path 154" d="M710.773,308.006a4.108,4.108,0,1,1-4.061-4.153A4.108,4.108,0,0,1,710.773,308.006Z" transform="translate(-325.634 -192.468)" fill="#e6e6e6"/>
          <rect id="Rectangle_30" data-name="Rectangle 30" width="95.241" height="72.762" transform="translate(320.764 138.016)" fill="#f2f2f2"/>
          <rect id="Rectangle_31" data-name="Rectangle 31" width="85.776" height="65.531" transform="translate(325.497 141.632)" fill="#fff"/>
          <circle id="Ellipse_11" data-name="Ellipse 11" cx="3.561" cy="3.561" r="3.561" transform="translate(336.489 156.047)" fill="#3f3d56"/>
          <path id="Path_155" data-name="Path 155" d="M712.4,372.74a2.415,2.415,0,1,1,0,4.831H674.942a2.415,2.415,0,0,1,0-4.831H712.4m0-.592H674.942a3.007,3.007,0,0,0,0,6.014H712.4a3.007,3.007,0,0,0,0-6.014Z" transform="translate(-315.126 -215.903)" fill="#3f3d56"/>
          <path id="Path_156" data-name="Path 156" d="M694.737,378.162h-28.2a3.007,3.007,0,0,1,0-6.014h28.2a3.007,3.007,0,1,1,0,6.014Z" transform="translate(-312.242 -215.904)" fill="#3e69dc"/>
          <circle id="Ellipse_12" data-name="Ellipse 12" cx="3.561" cy="3.561" r="3.561" transform="translate(336.489 170.836)" fill="#3f3d56"/>
          <path id="Path_157" data-name="Path 157" d="M712.4,395.255a2.415,2.415,0,1,1,0,4.831H674.942a2.415,2.415,0,0,1,0-4.831H712.4m0-.592H674.942a3.007,3.007,0,0,0,0,6.014H712.4a3.007,3.007,0,1,0,0-6.014Z" transform="translate(-315.126 -223.629)" fill="#3f3d56"/>
          <path id="Path_158" data-name="Path 158" d="M705.384,400.677H666.538a3.007,3.007,0,0,1,0-6.014h38.846a3.007,3.007,0,0,1,0,6.014Z" transform="translate(-312.242 -223.629)" fill="#3e69dc"/>
          <circle id="Ellipse_13" data-name="Ellipse 13" cx="3.561" cy="3.561" r="3.561" transform="translate(336.489 185.625)" fill="#3f3d56"/>
          <path id="Path_159" data-name="Path 159" d="M712.4,417.77a2.415,2.415,0,1,1,0,4.831H674.942a2.415,2.415,0,0,1,0-4.831H712.4m0-.592H674.942a3.007,3.007,0,0,0,0,6.014H712.4a3.007,3.007,0,1,0,0-6.014Z" transform="translate(-315.126 -231.355)" fill="#3f3d56"/>
          <path id="Path_160" data-name="Path 160" d="M682.313,423.192H666.538a3.007,3.007,0,0,1,0-6.014h15.775a3.007,3.007,0,0,1,0,6.014Z" transform="translate(-312.242 -231.355)" fill="#6c63ff"/>
          <rect id="Rectangle_32" data-name="Rectangle 32" width="266.087" height="136.37" transform="translate(33.624 66.676)" fill="#f2f2f2"/>
          <rect id="Rectangle_33" data-name="Rectangle 33" width="248.348" height="122.817" transform="translate(42.493 73.452)" fill="#fff"/>
          <path id="Path_161" data-name="Path 161" d="M429.741,358.634H248.7a.567.567,0,0,1-.567-.567V271.3a.567.567,0,1,1,1.133,0V357.5H429.741a.567.567,0,1,1,0,1.133Z" transform="translate(-169.7 -181.102)" fill="#3f3d56"/>
          <path id="Path_162" data-name="Path 162" d="M298.4,381.454H281.936a1.684,1.684,0,0,1-1.682-1.682v-22.7a1.684,1.684,0,0,1,1.682-1.682H298.4a1.684,1.684,0,0,1,1.682,1.682v22.7A1.684,1.684,0,0,1,298.4,381.454Z" transform="translate(-180.722 -210.154)" fill="#3e69dc"/>
          <path id="Path_163" data-name="Path 163" d="M344.118,370.206H327.652a1.684,1.684,0,0,1-1.682-1.682V324.3a1.684,1.684,0,0,1,1.682-1.682h16.466A1.684,1.684,0,0,1,345.8,324.3v44.229A1.684,1.684,0,0,1,344.118,370.206Z" transform="translate(-196.41 -198.906)" fill="#3e69dc"/>
          <path id="Path_164" data-name="Path 164" d="M389.834,381.454H373.367a1.684,1.684,0,0,1-1.682-1.682v-22.7a1.684,1.684,0,0,1,1.682-1.682h16.466a1.684,1.684,0,0,1,1.682,1.682v22.7A1.684,1.684,0,0,1,389.834,381.454Z" transform="translate(-212.097 -210.154)" fill="#3e69dc"/>
          <path id="Path_165" data-name="Path 165" d="M435.55,365.766H419.083a1.647,1.647,0,0,1-1.682-1.606v-52.88a1.647,1.647,0,0,1,1.682-1.606H435.55a1.647,1.647,0,0,1,1.682,1.606v52.88A1.647,1.647,0,0,1,435.55,365.766Z" transform="translate(-227.784 -194.466)" fill="#3e69dc"/>
          <path id="Path_166" data-name="Path 166" d="M481.265,357.775H464.8a1.684,1.684,0,0,1-1.682-1.682V288.068a1.684,1.684,0,0,1,1.682-1.682h16.466a1.684,1.684,0,0,1,1.682,1.682v68.025A1.684,1.684,0,0,1,481.265,357.775Z" transform="translate(-243.471 -186.475)" fill="#3e69dc"/>
          <circle id="Ellipse_14" data-name="Ellipse 14" cx="3.399" cy="3.399" r="3.399" transform="translate(106.048 131.64)" fill="#3f3d56"/>
          <circle id="Ellipse_15" data-name="Ellipse 15" cx="3.399" cy="3.399" r="3.399" transform="translate(136.077 109.544)" fill="#3f3d56"/>
          <circle id="Ellipse_16" data-name="Ellipse 16" cx="3.399" cy="3.399" r="3.399" transform="translate(166.105 131.64)" fill="#3f3d56"/>
          <circle id="Ellipse_17" data-name="Ellipse 17" cx="3.399" cy="3.399" r="3.399" transform="translate(196.133 98.779)" fill="#3f3d56"/>
          <circle id="Ellipse_18" data-name="Ellipse 18" cx="3.399" cy="3.399" r="3.399" transform="translate(226.162 86.314)" fill="#3f3d56"/>
          <path id="Path_167" data-name="Path 167" d="M226.574,182.584l-30.1-22.545-29.689,22.237-.679-.906,30.368-22.747,29.957,22.438L256.2,148.484l.119-.049,30.029-12.1.424,1.051-29.909,12.051Z" transform="translate(-56.998 -46.783)" fill="#3f3d56"/>
        </g>
        <path id="Path_28" data-name="Path 28" d="M509.127,318.138Zm-31.759,148.5Zm-33.136-75.559c.1.322.18.644.273.961h0C444.423,391.725,444.335,391.4,444.232,391.081Zm64.9-72.958ZM197.72,242.78v2.148h23.031V242.78ZM477.368,466.64Zm-33.136-75.559c.1.322.18.644.273.961h0C444.423,391.725,444.335,391.4,444.232,391.081Zm64.9-72.958Zm-31.759,148.5Zm-33.136-75.544c.1.322.18.644.273.961h0C444.423,391.725,444.335,391.4,444.232,391.081Z" transform="translate(-120.384 -150.12)" fill="#6c63ff" opacity="0.1"/>
        <path id="Path_29" data-name="Path 29" d="M405.551,328.925s-2.031-.277-2.031-3.165a44.265,44.265,0,0,0-1.454-8.282h0c0-.025-1.258-9.394-3-10.883s-3.97-10.234-3.97-10.234-.382-4.745-1.16-5.766-1.83-3.522-3.382-7.089-8.022-6.038-8.022-6.038-11.7-6.622-15.014-8.78h0a5.073,5.073,0,0,1-.84-.619c-.577-.74-3.093-.755-3.093-.755a48.334,48.334,0,0,1-.6-5.167,3.831,3.831,0,0,0-.026-.543,17.5,17.5,0,0,0,7.842-9.469c.062-.191.113-.392.17-.584a1.662,1.662,0,0,0,1.005-.886,18.132,18.132,0,0,1,.675-2.013,7.71,7.71,0,0,1,1.908-1.635c1.64-1.359,2.062-3.648,1.985-5.731-.052-1.686-.33-3.386-.222-5.062l.031-.423c.031-.252.067-.5.113-.745.253-1.248.8-2.425,1.114-3.663a4.611,4.611,0,0,0-.382-3.7c-1.057-1.565-3.258-1.877-5.192-2.038-2.191-.181-4.15.055-5.553-1.721a19.434,19.434,0,0,0-2.207-2.6c-.289-.262-3.093-1.932-3.093-2.043a12.819,12.819,0,0,0-8.739-.654c-1.454.413-2.825,1.087-4.3,1.424-3.181.735-6.842-.06-9.543,1.716a10.981,10.981,0,0,0-3.253,4.166q-1.031,1.927-2.093,3.849a24.6,24.6,0,0,0-2.779,6.586,10.217,10.217,0,0,0-.186,1.54h0v.82a2.646,2.646,0,0,0,.031.5c.031.156.026.206.041.312s.041.342.072.5.093.443.155.664c.026.1.062.186.093.277.052.171.113.337.18.5.036.086.072.176.113.262a4.661,4.661,0,0,0,.263.5c.041.07.072.136.113.2a6.672,6.672,0,0,0,.474.674c1.1,1.343,2.727,2.2,3.929,3.457v.564a17.133,17.133,0,0,0,8.033,14.063c0,.191.026.387.036.579a28.1,28.1,0,0,1-.057,4.483,2.189,2.189,0,0,0-1.712-.745,2.531,2.531,0,0,0-.66.055l-.046-.035h0v.045c-1.134.272-2.531,1.424-3.867,4.7,0,0-4.063,4.468-7.156,4.282s-10.925,4.649-10.925,4.649-7.641,4.84-9.28,9.771a67.88,67.88,0,0,1-3.289,8.191l-9.445,18.994h0l-1.743,15.07s.964,6.7.773,7.723,3.965,10.234,3.965,10.234,13.73,23.543,19.339,24.75l.4-.277a3.337,3.337,0,0,0,.758.277l1.155-.795a11.987,11.987,0,0,1-.088,2.657c-.773,2.325.289,17.495,1.639,20.468s.871,41.963.871,41.963l-.191,3.442a1.427,1.427,0,0,0,.046.3l-.046.815.139.07a9.462,9.462,0,0,1-.139,3.276,35.578,35.578,0,0,0-.681,5.776s-3.862,24.091-2.031,28.932,3.387,10.144,3.387,10.144,1.933,6.038.093,7.069-7.074,2.762-6,5.278c.98,2.325,4.7,8.554,5.249,9.464l-.046.478-.758,8.015a9.878,9.878,0,0,0,.871,3.059,5.407,5.407,0,0,0,5.512,3.361c.516-.035,1.114-.1,1.691-.171a74.507,74.507,0,0,0,12.529-3.18,5.084,5.084,0,0,1-.98-.79h0a2.73,2.73,0,0,1-.861-2.013c.083-1.459-2.717-8.413-3.413-10.124-.108-.247-.165-.387-.165-.387s6.383-6.511,5.321-12.282c0,0-7.063-4.025-4.738-6.234s6.481-8.554,6.481-8.554.191-23.724,0-27.266a28.634,28.634,0,0,1,.356-7.361c.077-.367.17-.725.268-1.077a68.943,68.943,0,0,0,9.714.72c1.186,0,2.392,0,3.609-.07q0,.5.046,1.087c.268,5.877.768,16.182,1.176,20.011.577,5.489,3.769,20.282,3.769,20.282s-6.089,3.814,1.062,13.213c0,0,0,3.406-.474,3.9h0a41.8,41.8,0,0,0-1.222,4.911c-.3,1.771-.423,3.562.062,4.493,1.16,2.224,8.12,2.043,8.12,2.043h0l.17-.03a10.146,10.146,0,0,1,7.368,2.169c2.645,2.073,12.683,1.162,18.117.5,2.129-.262,3.552-.5,3.552-.5a1.967,1.967,0,0,0,.072-.725h0c-.057-1.3-1.1-4.161-8.2-6.712,0,0-6.672-4.377-6.579-8.191h-.913a7.46,7.46,0,0,1,.923,0s-2.614-9.308-1.547-10.063-2.129-11.069-2.129-11.069-1.83-17.309-1.928-18.521a10.335,10.335,0,0,1,.479-3.069l-.479-9.49s-.093-3.155,0-4.181a20.4,20.4,0,0,0-.222-2.662c-.046-.352-.093-.719-.144-1.082,2.5-.619,4.125-1.193,4.125-1.193l-.289-33.032c2.124-4.025,2.516-12.856,2.506-19.12,0-4.025-.186-7-.186-7l2.9-4.624s.67-5.535-.392-6.747a1.142,1.142,0,0,1,.129-1.585,5.393,5.393,0,0,1,.634-.423s-.031-.045-.067-.111a5.126,5.126,0,0,1,.644-.448s-1.031-1.56-.108-2.219c.866.574,1.64,1.006,2.227,1.358-.041.367-.082.579-.082.579l.247-.5.913.5s4.547-8.84,4.449-10.144,3.094-6.793,3.094-6.793.387-2.883,2.129-4.091,1.351-9.958,1.351-9.958.485-4.559,1.645-6.42S405.551,328.925,405.551,328.925Zm-87.008-3.879.088,2.108-.887-1.394Z" transform="translate(-167.809 -137.887)" fill="url(#linear-gradient)"/>
        <path id="Path_30" data-name="Path 30" d="M475.523,500.658l-1.114,4.629s-8.919-4.443-10.528-10.088,2.691-7.789,2.691-7.789l8.311,3.437Z" transform="translate(-249.144 -271.663)" fill="#fff"/>
        <path id="Path_31" data-name="Path 31" d="M475.523,500.658l-1.114,4.629s-8.919-4.443-10.528-10.088,2.691-7.789,2.691-7.789l8.311,3.437Z" transform="translate(-249.144 -271.663)" opacity="0.1"/>
        <path id="Path_32" data-name="Path 32" d="M370.75,808.75s-8.249,2.959-13.921,3.331a5.3,5.3,0,0,1-5.408-3.341,9.925,9.925,0,0,1-.851-3.044l.737-7.975.392-4.247,12.049-3.054,1.707,5.092.16.387c.686,1.7,3.434,8.619,3.351,10.063a2.714,2.714,0,0,0,.846,1.987A4.869,4.869,0,0,0,370.75,808.75Z" transform="translate(-194.428 -422.211)" fill="#fff"/>
        <path id="Path_33" data-name="Path 33" d="M464.206,804.173a1.964,1.964,0,0,1-.072.719s-17.643,2.873-21.252,0a9.722,9.722,0,0,0-7.424-2.123s-6.826.181-7.966-2.013c-.474-.921-.351-2.707-.057-4.468a41.712,41.712,0,0,1,1.2-4.886l.273-.211,1.624-1.273,19.014-.548h.144c-.093,3.794,6.455,8.146,6.455,8.146C463.1,800.032,464.124,802.875,464.206,804.173Z" transform="translate(-231.538 -421.689)" fill="#fff"/>
        <path id="Path_34" data-name="Path 34" d="M464.209,811a2.008,2.008,0,0,1-.077.719s-17.638,2.873-21.247,0a9.723,9.723,0,0,0-7.419-2.123s-6.831.181-7.966-2.013c-.474-.926-.356-2.707-.062-4.468,2.629.256,6.78.9,8.409,2.42,2.464,2.32,6.641,4.634,9.2,4.815C447.056,810.481,459.053,810.854,464.209,811Z" transform="translate(-231.54 -428.521)" opacity="0.1"/>
        <path id="Path_35" data-name="Path 35" d="M371.554,826.085s-8.249,2.959-13.921,3.331a5.285,5.285,0,0,1-5.4-3.346c2.1.689,5.011,1.414,6.543.75,1.815-.785,8.249-1.293,11.858-1.509A5.045,5.045,0,0,0,371.554,826.085Z" transform="translate(-195.232 -439.546)" opacity="0.1"/>
        <path id="Path_36" data-name="Path 36" d="M400.563,323.19c-6.806-2.581-15.56-11.11-13.374-15.095a8.745,8.745,0,0,0,.851-3.2,28.516,28.516,0,0,0,.062-4.528,60.571,60.571,0,0,0-.913-7.366s21.247.468,20.01,3.522a11.153,11.153,0,0,0-.32,4.191c.1,1.741.356,3.708.624,5.374.371,2.284.742,4.025.742,4.025s-1.3,1.776-2.062,1.872S410.328,326.868,400.563,323.19Z" transform="translate(-212.002 -175.072)" fill="#cf6f80"/>
        <path id="Path_37" data-name="Path 37" d="M366.277,795.9l-.16.171c-6.352-7.5-14.034,1.847-14.034,1.847l-.113-.2.392-4.247,12.049-3.054,1.707,5.092Z" transform="translate(-195.106 -422.211)" opacity="0.1"/>
        <path id="Path_38" data-name="Path 38" d="M451.07,789.878s-4.64-.1-7.115,2.038-14.436.463-13.921,0a1.629,1.629,0,0,0,.268-.765l1.624-1.273,19.014-.548C451.014,789.667,451.07,789.878,451.07,789.878Z" transform="translate(-232.915 -421.669)" opacity="0.1"/>
        <path id="Path_39" data-name="Path 39" d="M369.25,663.6a13.748,13.748,0,0,0-.784,2.581,28.84,28.84,0,0,0-.356,7.326c.191,3.522,0,27.125,0,27.125s-4.078,6.294-6.352,8.513,4.64,6.2,4.64,6.2c1.031,5.736-5.218,12.217-5.218,12.217-6.352-7.5-14.034,1.852-14.034,1.852s-4.176-7.044-5.218-9.56,4.078-4.257,5.878-5.278-.088-7.044-.088-7.044-1.521-5.278-3.326-10.093,1.99-28.786,1.99-28.786a36.287,36.287,0,0,1,.665-5.741,9.374,9.374,0,0,0,.139-3.26c-.031-.367-.067-.674-.093-.881s-.046-.3-.046-.3l.072-.121,2.578-4.689S370.488,660.644,369.25,663.6Z" transform="translate(-190.176 -354.263)" fill="#3e69dc"/>
        <path id="Path_40" data-name="Path 40" d="M445.834,726.778s-4.64-.1-7.115,2.013-14.436.463-13.921,0,.474-3.89.474-3.89c-7.017-9.349-1.031-13.142-1.031-13.142s-3.135-14.717-3.7-20.177c-.4-3.814-.887-14.063-1.15-19.915-.113-2.516-.18-4.247-.18-4.247l5.733-1.127.737-.146,13.828-2.707s.382,2.516.639,4.574a20.862,20.862,0,0,1,.216,2.652c-.093,1.006,0,4.156,0,4.156l.469,9.444a10.491,10.491,0,0,0-.469,3.054c.093,1.2,1.892,18.421,1.892,18.421s3.13,10.275,2.062,11.014S445.834,726.778,445.834,726.778Z" transform="translate(-227.679 -359.122)" fill="#3e69dc"/>
        <path id="Path_41" data-name="Path 41" d="M407.519,296.522a11.155,11.155,0,0,0-.32,4.191,18.028,18.028,0,0,1-18.777-.342A60.592,60.592,0,0,0,387.51,293S408.757,293.458,407.519,296.522Z" transform="translate(-212.323 -175.072)" opacity="0.1"/>
        <path id="Path_42" data-name="Path 42" d="M409.106,260.9a16.666,16.666,0,0,1-.866,5.339,17.675,17.675,0,0,1-19.332,11.692,17.37,17.37,0,0,1-15.077-16.618V260.9a17.647,17.647,0,0,1,35.283,0Z" transform="translate(-205.696 -150.567)" fill="#cf6f80"/>
        <path id="Path_43" data-name="Path 43" d="M400.563,334.935c-6.806-2.581-15.56-11.11-13.374-15.095a8.745,8.745,0,0,0,.851-3.2l9.316,7.472,5.764,4.614,4.382-10.888c.371,2.284.742,4.025.742,4.025s-1.3,1.776-2.062,1.872S410.328,338.613,400.563,334.935Z" transform="translate(-212.002 -186.817)" opacity="0.1"/>
        <path id="Path_44" data-name="Path 44" d="M371.41,308.537l-7.78,127.551-10.146.649L327.21,362.778l4.31-87.806.907-18.551,11.683,9.364,5.769,4.614,4.511-11.205,8.388,7.135Z" transform="translate(-158.756 -127.397)" fill="#3e69dc"/>
        <path id="Path_45" data-name="Path 45" d="M374.2,663.637a13.741,13.741,0,0,0-.784,2.581,76.1,76.1,0,0,1-21.273-6.486l-.139-.07.046-.81.026-.423,2.578-4.689S375.433,660.684,374.2,663.637Z" transform="translate(-195.121 -354.302)" opacity="0.1"/>
        <path id="Path_46" data-name="Path 46" d="M425.033,673.9a53.436,53.436,0,0,1-5.7.634c-.113-2.516-.18-4.247-.18-4.247l5.733-1.127Z" transform="translate(-227.65 -361.964)" opacity="0.1"/>
        <path id="Path_47" data-name="Path 47" d="M446.167,668.064c-3.666.931-9.327,1.977-14.395,1.323l-.072-3.19,13.828-2.707S445.909,665.981,446.167,668.064Z" transform="translate(-233.729 -359.147)" opacity="0.1"/>
        <path id="Path_48" data-name="Path 48" d="M368.849,496.828c-21.139,3.522-40.5-6.576-40.5-6.576l.186-3.422s.479-38.789-.851-41.762-2.366-18.053-1.614-20.368-2.748-37.022-2.748-37.022l-.567-14.088L302,365.383l9.28-18.878a67.144,67.144,0,0,0,3.227-8.151c1.614-4.9,9.105-9.716,9.105-9.716s7.682-4.81,10.719-4.629,7.017-4.257,7.017-4.257c2.939-7.311,5.6-4,5.6-4a6.38,6.38,0,0,1-.144,1.082c-1.031,8.025,16.674,33.385,16.926,33.832h0l1.686,40.082,1.707,50.723Z" transform="translate(-170.9 -186.004)" opacity="0.1"/>
        <path id="Path_49" data-name="Path 49" d="M367.735,496.8c-21.139,3.522-40.5-6.576-40.5-6.576l.191-3.421s.479-38.788-.856-41.762-2.366-18.053-1.609-20.368-2.748-37.022-2.748-37.022l-.572-14.088-20.767-8.237,9.28-18.878a68.181,68.181,0,0,0,3.227-8.151c1.609-4.9,9.105-9.716,9.105-9.716s7.682-4.81,10.714-4.629,7.017-4.257,7.017-4.257c2.944-7.311,6.187-4,6.187-4,0,.347-.309.5-.144,1.082,2.268,7.784,16.107,33.385,16.359,33.832h0l1.707,40.082,1.707,50.723Z" transform="translate(-170.352 -185.974)" fill="#fff"/>
        <path id="Path_50" data-name="Path 50" d="M401.213,352.9c-2.274-.926-14.318-14.345-14.318-14.345V335.5c-.438-1.006-3.042-.392-5.156.312l.907-18.551,1.031.835C385.937,325.874,400.95,352.451,401.213,352.9Z" transform="translate(-209.528 -187.125)" opacity="0.1"/>
        <path id="Path_51" data-name="Path 51" d="M402.318,350.689C400.04,349.763,388,336.344,388,336.344v-3.054c-.438-1.006-3.042-.392-5.156.312l.913-18.551,1.031.835C387.047,323.664,402.066,350.246,402.318,350.689Z" transform="translate(-210.06 -186.027)" fill="#fff"/>
        <path id="Path_52" data-name="Path 52" d="M352.02,517.429c.284,0,14.7-1.479,14.7-1.479s8.729,16.75,8.156,20.826-1.609,7.683-5.12,7.044-18.9.5-18.9.5Z" transform="translate(-194.569 -285.843)" opacity="0.1"/>
        <path id="Path_53" data-name="Path 53" d="M350.91,515.219c.284,0,14.7-1.479,14.7-1.479s8.724,16.755,8.156,20.826-1.614,7.683-5.12,7.044-18.9.5-18.9.5Z" transform="translate(-194.031 -284.745)" fill="#fff"/>
        <path id="Path_54" data-name="Path 54" d="M365.663,501.05s13.23,6.938,13.513,9.057-6.733-.926-8.249-1.293a19.307,19.307,0,0,0-3.037-.463l-10.11.267Z" transform="translate(-197.921 -278.44)" fill="#cf6f80"/>
        <ellipse id="Ellipse_3" data-name="Ellipse 3" cx="1.392" cy="1.359" rx="1.392" ry="1.359" transform="translate(186.602 163.922)" opacity="0.1"/>
        <ellipse id="Ellipse_4" data-name="Ellipse 4" cx="1.392" cy="1.359" rx="1.392" ry="1.359" transform="translate(186.602 163.369)" fill="#3f3d56"/>
        <ellipse id="Ellipse_5" data-name="Ellipse 5" cx="1.392" cy="1.359" rx="1.392" ry="1.359" transform="translate(189.165 222.731)" opacity="0.1"/>
        <ellipse id="Ellipse_6" data-name="Ellipse 6" cx="1.392" cy="1.359" rx="1.392" ry="1.359" transform="translate(189.165 222.173)" fill="#3f3d56"/>
        <ellipse id="Ellipse_7" data-name="Ellipse 7" cx="1.392" cy="1.359" rx="1.392" ry="1.359" transform="translate(187.989 193.327)" opacity="0.1"/>
        <ellipse id="Ellipse_8" data-name="Ellipse 8" cx="1.392" cy="1.359" rx="1.392" ry="1.359" transform="translate(187.989 192.773)" fill="#3f3d56"/>
        <path id="Path_55" data-name="Path 55" d="M452.875,417.549s.949,1.389,0,2.038.093,2.219.093,2.219-2.367,1.353-1.325,2.571.382,6.717.382,6.717l-2.846,4.6s.17,2.964.18,6.969c0,6.249-.376,15.034-2.459,19.04l.289,32.861s-9.966,3.552-18.308,2.47L427.642,444.3s1.8-29.9,2.47-35.639a58.3,58.3,0,0,0,.474-8.981s-.284-8.976-1.237-13.143c0,0-1.031-18.048-1.134-23.045-.046-2.39.083-9.364.227-16,.16-7.251.34-14.088.34-14.088L426.9,318.879s1.882-.186,2.449.554a5.415,5.415,0,0,0,.825.619h0c3.248,2.143,14.725,8.735,14.725,8.735s6.352,2.465,7.873,6a51.693,51.693,0,0,0,3.315,7.044c.737,1.006,1.139,5.736,1.139,5.736s2.186,8.7,3.893,10.179,2.954,10.853,2.954,10.853l-15.081,11.573s-1.325,19.251-1.609,20S452.875,417.549,452.875,417.549Z" transform="translate(-231.404 -187.919)" fill="#fff"/>
        <path id="Path_56" data-name="Path 56" d="M453.413,417.39s.944,1.389,0,2.038.088,2.219.088,2.219-2.351,1.369-1.32,2.586.382,6.717.382,6.717l-2.846,4.6s.17,2.964.186,6.969c0,6.249-.376,15.034-2.459,19.04l.284,32.861s-9.982,3.552-18.313,2.471l-1.232-52.731s1.8-29.9,2.47-35.639a57.752,57.752,0,0,0,.469-8.981s-.284-8.976-1.232-13.143c0,0-1.031-18.048-1.139-23.045-.046-2.39.088-9.364.227-16,.16-7.25.34-14.088.34-14.088L426.83,318.54s2.485,0,3.057.75a4.882,4.882,0,0,0,.825.619h0c3.248,2.143,14.73,8.735,14.73,8.735s6.347,2.465,7.868,6a50.88,50.88,0,0,0,3.32,7.044c.742,1.006,1.134,5.736,1.134,5.736s2.186,8.7,3.893,10.179,2.939,10.833,2.939,10.833l-15.081,11.573s-1.325,19.251-1.614,20S453.413,417.39,453.413,417.39Z" transform="translate(-231.37 -187.761)" fill="#fff"/>
        <path id="Path_57" data-name="Path 57" d="M435.89,338.627l1.361,3.874-7.167,7.044c.16-7.246.34-14.088.34-14.088L427.94,320.73s2.485,0,3.057.75a4.692,4.692,0,0,0,.825.614h0l6.094,17.158Z" transform="translate(-231.908 -188.849)" opacity="0.1"/>
        <path id="Path_58" data-name="Path 58" d="M434.78,336.417l1.366,3.874-7.166,7.044c.16-7.251.34-14.088.34-14.088l-2.49-14.727s2.49,0,3.057.75a5.148,5.148,0,0,0,.825.619h0l6.1,17.153Z" transform="translate(-231.37 -187.751)" fill="#fff"/>
        <path id="Path_59" data-name="Path 59" d="M409.106,260.9a16.664,16.664,0,0,1-.866,5.339.751.751,0,0,1-.557-.136c-.134-4.528-2.418-8.78-5.228-12.4a13.175,13.175,0,0,0-2.836-2.868,5.647,5.647,0,0,0-3.846-1.062c-1.547.206-2.913,1.233-4.475,1.364-2.062.166-3.908-1.228-5.955-1.3a5.912,5.912,0,0,0-4.377,1.982,11.634,11.634,0,0,0-2.346,4.247,24.306,24.306,0,0,0-1.31,7.326c-.026,1.409-.165,3.175-1.505,3.688a7.4,7.4,0,0,0-1.944-5.741l-.031-.03V260.9a17.647,17.647,0,0,1,35.283,0Z" transform="translate(-205.696 -150.567)" opacity="0.1"/>
        <path id="Path_60" data-name="Path 60" d="M393.711,222.457a12.423,12.423,0,0,0-8.569-.654c-1.428.413-2.774,1.082-4.223,1.419-3.093.73-6.7-.06-9.358,1.706a10.951,10.951,0,0,0-3.186,4.141l-2.062,3.834a24.545,24.545,0,0,0-2.727,6.541A8.189,8.189,0,0,0,364.9,246.2c1.093,1.354,2.707,2.2,3.893,3.477a7.432,7.432,0,0,1,1.939,5.736c1.346-.5,1.475-2.274,1.505-3.683a24.308,24.308,0,0,1,1.31-7.326,11.6,11.6,0,0,1,2.346-4.247,5.923,5.923,0,0,1,4.377-1.982c2.062.07,3.913,1.459,5.955,1.293,1.547-.126,2.918-1.157,4.475-1.359a5.626,5.626,0,0,1,3.846,1.062,13.038,13.038,0,0,1,2.83,2.868c2.815,3.618,5.1,7.859,5.233,12.4.583.418,1.423-.126,1.712-.77a18.087,18.087,0,0,1,.665-2.013,7.548,7.548,0,0,1,1.866-1.62c1.609-1.353,2.011-3.633,1.949-5.7s-.474-4.166-.072-6.2c.242-1.248.789-2.415,1.088-3.648a4.667,4.667,0,0,0-.371-3.678c-1.031-1.56-3.2-1.867-5.094-2.013-2.15-.181-4.073.05-5.445-1.716a19.376,19.376,0,0,0-2.165-2.586C396.469,224.228,393.711,222.567,393.711,222.457Z" transform="translate(-200.633 -139.463)" fill="#512e4e"/>
        <path id="Path_61" data-name="Path 61" d="M306.854,424.851l-5.388-9.721-1.707,15s.949,6.662.758,7.683,3.887,10.179,3.887,10.179,13.472,23.417,18.973,24.625l18.586-12.961-4.929-6.108s-1.707-.649-2.135,0c0,0-9.151-15.366-10.1-16.478s-.763-3.331-.763-3.331-1.423-1.479-.949-2.868-2.748-6.2-2.748-6.2l2.939-2.682Z" transform="translate(-169.814 -235.751)" opacity="0.1"/>
        <path id="Path_62" data-name="Path 62" d="M300.68,412.93l-1.423,1.107-1.707,15s.949,6.662.758,7.683S302.2,446.9,302.2,446.9s13.467,23.417,18.968,24.625l18.592-12.961-4.934-6.108s-1.706-.649-2.134,0c0,0-9.151-15.366-10.1-16.478s-.758-3.331-.758-3.331-1.423-1.479-.949-2.868-2.753-6.2-2.753-6.2l2.939-2.682Z" transform="translate(-168.744 -234.658)" fill="#fff"/>
        <path id="Path_63" data-name="Path 63" d="M464.784,520.861c1.031,1.223.382,6.712.382,6.712l-2.846,4.6s.17,2.969.18,6.969l-4.785,1.459a2.9,2.9,0,0,1-2.565-.438,2.748,2.748,0,0,1-1.121-2.294l.825-25.968,11.162,4.166c-.949.644.093,2.224.093,2.224S463.742,519.639,464.784,520.861Z" transform="translate(-244.545 -283.83)" opacity="0.1"/>
        <path id="Path_64" data-name="Path 64" d="M465.889,519.756c1.031,1.223.381,6.717.381,6.717l-2.846,4.6s.17,2.964.186,6.969l-4.872,1.484a2.84,2.84,0,0,1-2.511-.432,2.693,2.693,0,0,1-1.1-2.245l.83-26.049,11.167,4.166c-.954.644.088,2.219.088,2.219S464.858,518.539,465.889,519.756Z" transform="translate(-245.078 -283.284)" fill="#fff"/>
        <path id="Path_65" data-name="Path 65" d="M474.78,500s-.758,4.725-2.655,5-2.748,7.643-4.64,7.381-.639-6.848-.572-8.126-2.062-6.571-.469-7.774,6.635,0,6.635,0Z" transform="translate(-250.273 -275.905)" fill="#cf6f80"/>
        <path id="Path_66" data-name="Path 66" d="M476.988,424.734l3.578-7.044a44.736,44.736,0,0,1,1.423,8.237c0,2.868,1.99,3.15,1.99,3.15s2.181,2.516,1.031,4.347-1.614,6.39-1.614,6.39.376,8.7-1.33,9.9S480,453.792,480,453.792s-3.135,5.459-3.037,6.757-4.362,10.088-4.362,10.088,2.181-10.924-10.528-15.643c0,0-.1-3.708.851-4.725s2.428-1.479,1.5-6.617-.268-11.276-.268-12.508,2.846-8.921,2.846-8.921Z" transform="translate(-248.444 -237.023)" opacity="0.1"/>
        <path id="Path_67" data-name="Path 67" d="M479.547,415.69l3.124,1.006a44.591,44.591,0,0,1,1.428,8.237c0,2.868,1.99,3.15,1.99,3.15s2.181,2.516,1.031,4.347-1.609,6.39-1.609,6.39.376,8.7-1.33,9.9-2.088,4.076-2.088,4.076-3.13,5.459-3.032,6.757-4.367,10.088-4.367,10.088S476.882,458.72,464.168,454c0,0-.093-3.708.856-4.725s2.428-1.479,1.5-6.617-.268-11.276-.268-12.508,2.846-8.921,2.846-8.921Z" transform="translate(-249.456 -236.029)" fill="#fff"/>
        <path id="Path_68" data-name="Path 68" d="M360.15,776.937s4.98-3.054,8.249-.835S360.15,776.937,360.15,776.937Z" transform="translate(-199.069 -414.696)" opacity="0.1"/>
        <path id="Path_69" data-name="Path 69" d="M435.21,759.763a10.229,10.229,0,0,1,8.11,3.336C447.022,766.989,435.21,759.763,435.21,759.763Z" transform="translate(-235.43 -406.966)" opacity="0.1"/>
        <g id="Group_1" data-name="Group 1" transform="translate(162.749 92.921)" opacity="0.1">
          <path id="Path_70" data-name="Path 70" d="M413.791,264.386a7.591,7.591,0,0,0-1.871,1.625,18.08,18.08,0,0,0-.66,2.013c-.289.654-1.129,1.187-1.712.775-.134-4.528-2.423-8.78-5.233-12.4a13.035,13.035,0,0,0-2.831-2.868,5.642,5.642,0,0,0-3.851-1.062c-1.547.206-2.908,1.233-4.47,1.359-2.062.171-3.913-1.223-5.96-1.293a5.9,5.9,0,0,0-4.372,1.987,11.569,11.569,0,0,0-2.346,4.242,24.333,24.333,0,0,0-1.31,7.326c-.031,1.4-.165,3.155-1.5,3.678a6.732,6.732,0,0,1,0,1.117c1.34-.5,1.474-2.274,1.505-3.683a24.308,24.308,0,0,1,1.31-7.326,11.593,11.593,0,0,1,2.346-4.247,5.912,5.912,0,0,1,4.372-1.982c2.062.07,3.918,1.459,5.96,1.293,1.547-.126,2.918-1.157,4.47-1.359a5.641,5.641,0,0,1,3.851,1.062,13.036,13.036,0,0,1,2.831,2.868c2.81,3.618,5.1,7.859,5.233,12.4.583.418,1.423-.126,1.712-.77a19.183,19.183,0,0,1,.66-2.013,7.574,7.574,0,0,1,1.872-1.62c1.609-1.353,2.011-3.633,1.949-5.7v-.191A6.523,6.523,0,0,1,413.791,264.386Z" transform="translate(-370.31 -247.842)"/>
          <path id="Path_71" data-name="Path 71" d="M368.806,267.973c-1.186-1.273-2.8-2.123-3.893-3.472a7.255,7.255,0,0,1-1.5-4.121,7.614,7.614,0,0,0,1.5,5.228c1.088,1.353,2.707,2.2,3.893,3.477a7.457,7.457,0,0,1,1.944,4.488A7.434,7.434,0,0,0,368.806,267.973Z" transform="translate(-363.385 -251.786)"/>
          <path id="Path_72" data-name="Path 72" d="M452.281,244.3c-.3,1.233-.846,2.405-1.093,3.648a11.345,11.345,0,0,0-.16,2.516,9.544,9.544,0,0,1,.16-1.429c.247-1.248.789-2.415,1.093-3.648a6.045,6.045,0,0,0,.17-2.083,6.841,6.841,0,0,1-.17,1Z" transform="translate(-405.835 -243.3)"/>
        </g>
        <ellipse id="Ellipse_9" data-name="Ellipse 9" cx="50.238" cy="7.874" rx="50.238" ry="7.874" transform="translate(17.947 366.951)" fill="#3e69dc" opacity="0.1"/>
        <rect id="Rectangle_27" data-name="Rectangle 27" width="3.233" height="71.031" transform="translate(66.571 223.979)" fill="#535461"/>
        <path id="Path_73" data-name="Path 73" d="M181.3,639.75l-.2,3.2-.289,4.528-.119,1.882-.284,4.528-.124,1.882L180,660.3l-3.258,51.357a8.83,8.83,0,0,1-8.9,8.161H150.9a8.825,8.825,0,0,1-8.894-8.161l-3.243-51.393-.289-4.528-.119-1.882-.289-4.528-.119-1.882-.289-4.528-.206-3.2a4.465,4.465,0,0,1,1.262-3.369,4.7,4.7,0,0,1,3.378-1.416h34.652a4.661,4.661,0,0,1,3.348,1.448A4.433,4.433,0,0,1,181.3,639.75Z" transform="translate(-91.185 -344.957)" fill="#3f3d56"/>
        <path id="Path_74" data-name="Path 74" d="M134.043,592.24l-.289,4.513H90.869l-.289-4.513Z" transform="translate(-44.127 -294.247)" fill="#9d9cb5"/>
        <path id="Path_75" data-name="Path 75" d="M134.018,604.95l-.284,4.518H91.659l-.289-4.518Z" transform="translate(-44.509 -300.561)" fill="#9d9cb5"/>
        <path id="Path_76" data-name="Path 76" d="M133.994,617.68l-.284,4.513H92.449l-.289-4.513Z" transform="translate(-44.892 -306.886)" fill="#9d9cb5"/>
        <path id="Path_77" data-name="Path 77" d="M89.254,542.808c18.824,13.293,26.681,34.084,26.681,34.084s-22.685-.76-41.514-14.053S47.75,528.76,47.75,528.76,70.425,529.515,89.254,542.808Z" transform="translate(-47.735 -292.207)" fill="#3e69dc"/>
        <path id="Path_78" data-name="Path 78" d="M47.72,528.76s23.551,12.755,31.1,23.316,37.1,24.816,37.1,24.816" transform="translate(-47.72 -292.207)" fill="none" stroke="#535461" stroke-miterlimit="10" stroke-width="2"/>
        <path id="Path_79" data-name="Path 79" d="M130.593,495.908c10.244,7.23,14.529,18.546,14.529,18.546s-12.348-.413-22.6-7.643S108,488.26,108,488.26,120.343,488.673,130.593,495.908Z" transform="translate(-76.921 -272.085)" fill="#3e69dc"/>
        <path id="Path_80" data-name="Path 80" d="M108,488.26s12.817,6.944,16.926,12.69,20.2,13.5,20.2,13.5" transform="translate(-76.921 -272.085)" fill="none" stroke="#535461" stroke-miterlimit="10" stroke-width="2"/>
        <path id="Path_81" data-name="Path 81" d="M195.451,522.784c-11.771,12.624-14.261,29.123-14.261,29.123s16.6-3.975,28.357-16.6,14.261-29.123,14.261-29.123S207.221,510.16,195.451,522.784Z" transform="translate(-112.376 -280.988)" fill="#3e69dc"/>
        <path id="Path_82" data-name="Path 82" d="M223.818,506.19s-15.333,12.941-19.231,21.857-23.4,23.865-23.4,23.865" transform="translate(-112.376 -280.993)" fill="none" stroke="#535461" stroke-miterlimit="10" stroke-width="2"/>
        <path id="Path_83" data-name="Path 83" d="M938.186,397.863s-8.512-41.329-5.254-46.472c0,0,.119-4.78-.077-10.873v-.7a15.955,15.955,0,0,0,1.789,1.006,14.8,14.8,0,0,0,9.744,1.228l-2.578-2.8a4.624,4.624,0,0,1-1.4-2.279,4.68,4.68,0,0,1,.557-2.465c2.449-6.038,2.578-13.631-2.14-18.239-3.985-3.874-4.955-8.876-9.28-12.413-3.161-2.591-4.9-6.39-6.537-10.063a55.75,55.75,0,0,1-3.578-9.525c-.619-2.571-.866-5.233-1.717-7.744a9.9,9.9,0,0,0-4.934-6.073A18.859,18.859,0,0,1,910.1,269.3a11.383,11.383,0,0,1-2.47-2.833c-3.9-5.032-16.973-2.068-23.16-.025a13.125,13.125,0,0,0-4.578,2.476l.057-.091c.046-.076.1-.151.155-.226a8.009,8.009,0,0,0-1.732,1.887,44.727,44.727,0,0,0-2.031,4.528c-.907,1.786-5.955,6.772-3.784,8.78a1.839,1.839,0,0,0,.516.322,4.562,4.562,0,0,0,2.578.252l-.093.216a14.4,14.4,0,0,0-1.119,5.58c0,8.267,6.986,14.969,15.612,14.969a16.116,16.116,0,0,0,4.779-.719c.036.191.067.382.1.574a1.712,1.712,0,0,0,.036.226h0l-.273.372a.5.5,0,0,0-.047-.065l-8.094,11.039c-1.238.85-8.363,5.882-8.765,9.656-.423,4.131-.845,8.966-.845,8.966l-.057,1.037a3.243,3.243,0,0,1-2.578.679c-2.526-.4-2.526,9.057-2.526,9.057s-1.681,1.509-2.836.2-4.207,3.125-4.207,3.125l-19.128.805h0l-.438.025-1.031-3.115a1.353,1.353,0,0,0-1.686-.84,1.569,1.569,0,0,0-.232.1l-.072.04-.134.091-.067.06a1.015,1.015,0,0,0-.1.106l-.062.07-.031.03h0a1.243,1.243,0,0,0-.186,1.127l.887,2.672c-3.692.724-7.465,2.767-4.388,8.393l-15.6-2.813,5.047,4.136,26.057,5.248c-.345.6-.119,1.479.959,2.712,4.64,5.318,13.1,6.762,16.5,7.135a28.441,28.441,0,0,0,3.346,5.535l-.294,5.3s-8.615,40.383-10.193,42.431a24,24,0,0,0,2.181-2.8c-2.5,8.3-6,19.653-6.914,21.354-1.474,2.717-2.841,13.711-1.16,14.416a14.487,14.487,0,0,0,4.094-.045v.911L862,496.864s.423,21.168-.737,23.186-1.469,6.249-1.469,6.249-4.64,8.347-8.316,11.7a.547.547,0,0,1-.082.07l-.114-.785s-4.418,5.444-14.194,5.137c0,0-5.883,3.733,2.841,3.935s19.865-.3,19.865-.3,7.78-11.573,14.3-10.063v8.77h2v-8.911a7.977,7.977,0,0,0,3.552-5.248,6.3,6.3,0,0,0-2.33-5.9,3.734,3.734,0,0,1-1.274-2.757l-.072.06a5.164,5.164,0,0,0-.067-.543c-.572-4.528-1.289-13.872,1.243-20.786,3.47-9.479,4.522-22.682,2-30.542a68.812,68.812,0,0,1-2.005-7.653c-.062-.327-.119-.639-.17-.931a41.522,41.522,0,0,1,5.12,1.006c5.852,1.575,18.654,1.867,29.584,1.781.026.292.057.6.093.906a32.248,32.248,0,0,0,1.217,6.3c1.371,4.025,2,21.772,2,21.772s1.768,14.592.8,20.529c-.516,3.3-1.031,6.617-1.325,9.947v.065s-2.9,8.05-5.016,12.423c-.052.111-.108.221-.16.327a6.845,6.845,0,0,0-1.655.357s-2.841,5.535-5.671,6.451-1.892,3.93,4.516,2.823,16.086-2.013,16.086-2.013l.418-5.645,1.969-2.405-.516,5.63,2.1-.4-.279-6.848,3.222-3.935s3.893-3.381-1.892-10.033v.146c-.062-.1-.119-.2-.186-.292v-.03c-.959-1.449-1.722-4.151-.325-8.946,2.526-8.664,4-16.529,4-16.529s5.64-21.067-1.139-31.035h.3a16.476,16.476,0,0,1-1.459-4.428q-.051-.272-.093-.558a37.973,37.973,0,0,0,13.957-3.079C942.6,455.817,940.186,405.823,938.186,397.863ZM874.5,362.994v.1l-1.031.05Zm-3.537.478a1.152,1.152,0,0,0-.464.216,4.405,4.405,0,0,0-.809,2.068l-1.609-.352s-1.129-.236-2.753-.5l-.768-.755C866.67,363.975,868.867,363.724,870.96,363.472Z" transform="translate(-423.028 -160.51)" fill="url(#linear-gradient-2)"/>
        <path id="Path_84" data-name="Path 84" d="M971.934,742.536l-.614,7.13,2.057-.4-.309-7.734Z" transform="translate(-470.779 -368.42)" fill="#1d2366"/>
        <path id="Path_85" data-name="Path 85" d="M902.364,692.733c-2.48,6.893-1.779,16.2-1.222,20.715.206,1.671.4,2.687.4,2.687s-3.707,8.242-4.016,8.554-10.91,6.627-10.91,6.627l-7.409,4.221s-7.517-3.215-3.913-4.322a5.479,5.479,0,0,0,1.944-1.293c3.609-3.346,8.141-11.663,8.141-11.663s.309-4.222,1.444-6.229.722-23.1.722-23.1l.088-34.391V650.05l14.1.1a30.443,30.443,0,0,0,.608,4.528,67.854,67.854,0,0,0,1.964,7.628C906.788,670.151,905.757,683.289,902.364,692.733Z" transform="translate(-448.142 -352.469)" fill="#ffb0b1"/>
        <path id="Path_86" data-name="Path 86" d="M901.539,778.747s-3.707,8.242-4.016,8.554-10.91,6.627-10.91,6.627l-7.409,4.222s-7.517-3.215-3.913-4.322a5.477,5.477,0,0,0,1.944-1.293l.32,2.2,2.47-.1,21.139-18.562C901.348,777.73,901.539,778.747,901.539,778.747Z" transform="translate(-448.142 -415.081)" opacity="0.1"/>
        <path id="Path_87" data-name="Path 87" d="M888.976,777l-21.257,18.687-2.47.1-.516-3.522s-4.321,5.424-13.921,5.122c0,0-5.764,3.718,2.779,3.92s19.453-.3,19.453-.3,7.62-11.573,14-10.063v8.74H889v-8.82a7.932,7.932,0,0,0,3.475-5.233,6.33,6.33,0,0,0-2.274-5.877A3.747,3.747,0,0,1,888.976,777Z" transform="translate(-435.837 -415.543)" fill="#1d2366"/>
        <path id="Path_88" data-name="Path 88" d="M1005.561,703.11c-1.371,4.78-.624,7.472.314,8.916v.03a16.261,16.261,0,0,1,2.464,5.872l.083.453-9.672,13.761-5.249,2.013s-8.44-2.813-6.9-3.618a7.69,7.69,0,0,0,1.681-2.687c2.062-4.352,4.908-12.383,4.908-12.383V715.4c.3-3.316.773-6.621,1.3-9.912.944-5.922-.789-20.458-.789-20.458s-.619-17.676-1.959-21.7a32.46,32.46,0,0,1-1.2-6.259c-.278-2.516-.34-4.589-.34-4.589s5.558-7.547,15.746.6a11.041,11.041,0,0,1,2.129,2.254c7.038,9.771,1.371,31.3,1.371,31.3S1008.031,694.471,1005.561,703.11Z" transform="translate(-502.447 -352.099)" fill="#ffb0b1"/>
        <path id="Path_89" data-name="Path 89" d="M1008.452,780.2l-9.672,13.761-5.249,2.013s-8.44-2.813-6.9-3.618a7.688,7.688,0,0,0,1.681-2.687c3.573-.03,5.424,3.291,5.424,3.291l4.527-.7s5.97-11.452,7.311-12.151.206-5.228.206-5.228V773.72c.036.04.067.086.108.126v.03a16.259,16.259,0,0,1,2.464,5.872Z" transform="translate(-502.462 -413.914)" opacity="0.1"/>
        <path id="Path_90" data-name="Path 90" d="M987.51,793.541s-2.578-4.619-7.517-2.913c0,0-2.779,5.535-5.558,6.43s-1.851,3.915,4.429,2.813,15.746-2.013,15.746-2.013l.412-5.63,6.383-7.935s3.8-3.366-1.856-9.993v1.152s1.134,4.528-.206,5.228-7.29,12.156-7.29,12.156Z" transform="translate(-495.924 -414.202)" fill="#1d2366"/>
        <path id="Path_91" data-name="Path 91" d="M914.256,650.131a30.413,30.413,0,0,0,.609,4.528,66.274,66.274,0,0,0-14.725-.146V650.03Z" transform="translate(-460.653 -352.459)" opacity="0.1"/>
        <path id="Path_92" data-name="Path 92" d="M1012.227,656.593s-8.249.392-18.086.473c-.278-2.516-.34-4.589-.34-4.589s5.558-7.547,15.746.6a11.047,11.047,0,0,1,2.129,2.254A12.147,12.147,0,0,0,1012.227,656.593Z" transform="translate(-506.025 -352.094)" opacity="0.1"/>
        <path id="Path_93" data-name="Path 93" d="M962.384,568.658s-36.132,1.706-47.144-1.308-21.927-.4-23.572-1.1-.309-11.653,1.134-14.365,9.363-30.139,9.363-30.139l7.62-38.773,8.028-2.159.567-.156,13.988-3.764,10.25-2.762S963,551.782,961.25,557.508a14.319,14.319,0,0,0-.3,6.737A16.528,16.528,0,0,0,962.384,568.658Z" transform="translate(-456.182 -265.065)" fill="#1d2366"/>
        <path id="Path_94" data-name="Path 94" d="M872.431,439s-7.218,7.547-1.753,11.754,9.059.4,9.059.4Z" transform="translate(-445.391 -247.611)" fill="#c7daf5"/>
        <path id="Path_95" data-name="Path 95" d="M872.431,439s-7.218,7.547-1.753,11.754,9.059.4,9.059.4Z" transform="translate(-445.391 -247.611)" opacity="0.1"/>
        <path id="Path_96" data-name="Path 96" d="M974.6,326.8s-.846.785-2.119,1.942c-1.815,1.655-4.5,4.076-6.883,6.1-3.3,2.8-6.022,4.86-5.048,3.1s.789-4.815.3-7.678c-.036-.191-.067-.382-.1-.569a51.7,51.7,0,0,0-1.593-6.219,108.341,108.341,0,0,1,8.28-9.374c1.1-1.006,1.866-1.419,1.913-.719a22.97,22.97,0,0,0,1.671,5.223c.026.07.052.136.083.206.6,1.51,1.273,3.059,1.866,4.4C973.88,325.266,974.6,326.8,974.6,326.8Z" transform="translate(-489.244 -185.027)" fill="#ffb0b1"/>
        <path id="Path_97" data-name="Path 97" d="M971.106,318.821a15.055,15.055,0,0,1-10.25,11.452,51.319,51.319,0,0,0-1.7-6.788s10.038-12.654,10.193-10.093A23.513,23.513,0,0,0,971.106,318.821Z" transform="translate(-489.244 -185.033)" opacity="0.1"/>
        <path id="Path_98" data-name="Path 98" d="M942.373,352.236l1.3-1.786s.861,5.122,4.027,2.863,3.32,17,3.32,17l-3.4,49.576-24.552-1.434.7-23.955,2.779-12.076,6.873-17.555,4.089-5.8Z" transform="translate(-471.761 -203.615)" opacity="0.1"/>
        <path id="Path_99" data-name="Path 99" d="M951.034,370.9l-3.093,44.826-.325,4.75-13.688-.8-.516-.03-10.312-.6.7-23.96,2.779-12.076,6.873-17.555,4.088-5.8,4.867-6.858,1.3-1.781s.861,5.122,4.027,2.863l.067-.045h0C950.89,351.916,951.034,370.9,951.034,370.9Z" transform="translate(-471.776 -203.894)" fill="#1d2366"/>
        <path id="Path_100" data-name="Path 100" d="M900.616,406.26s-1.232,2.516-3.707,2.108-2.47,9.057-2.47,9.057-1.645,1.51-2.779.2-4.125,3.115-4.125,3.115l-18.736.805s8.337,3.718,6.7,14.969c0,0,28.305-1.711,29.233-4.322S900.616,406.26,900.616,406.26Z" transform="translate(-445.472 -231.344)" fill="#fff"/>
        <path id="Path_101" data-name="Path 101" d="M900.616,406.26s-1.232,2.516-3.707,2.108-2.47,9.057-2.47,9.057-1.645,1.51-2.779.2-4.125,3.115-4.125,3.115l-18.736.805s8.337,3.718,6.7,14.969c0,0,28.305-1.711,29.233-4.322S900.616,406.26,900.616,406.26Z" transform="translate(-445.472 -231.344)" opacity="0.03"/>
        <path id="Path_102" data-name="Path 102" d="M777.66,389.76l4.939,4.116,40.658,8.337-5.042-5.022Z" transform="translate(-376.965 -193.646)" fill="#fff"/>
        <path id="Path_103" data-name="Path 103" d="M933,352.5c-.675,1.006-2.609,6.159-4.223,10.657-1.346,3.748-2.47,7.044-2.47,7.044s-2.624,16.675-3.965,19.689-.613,14.768-.613,14.768l-5,29.027s-2.263,14.969-5.759,23.91c-3.449,8.8-7.29,12.926-7.409,13.057,1.547-2.043,9.976-42.265,9.976-42.265l2.784-50.728s.407-4.82.82-8.941,8.765-9.746,8.765-9.746l8.053-11.175C934.778,348.857,934.236,350.7,933,352.5Z" transform="translate(-462.315 -202.299)" fill="#fff"/>
        <path id="Path_104" data-name="Path 104" d="M902.376,475.732s-11.858-.5-17.6-7.235,13.276-2.687,13.276-2.687l4.944,1.107Z" transform="translate(-452.686 -260.332)" fill="#ffb0b1"/>
        <path id="Path_105" data-name="Path 105" d="M986.527,499.037a14.321,14.321,0,0,0-.3,6.737c-12.936.9-26.774-2.516-26.774-2.516-2.578,2.315-9.368,5.726-9.368,5.726l-3.7-44.781c-2.367-6.038-3.294-37.671-3.294-37.671s.211-1.655.516-4.136a.467.467,0,0,1,.026-.186c.923-6.928,2.753-19.935,3.65-21.691,1.237-2.415-3.8-8.84-3.8-8.84l2.294-19.095.278-2.3c4.836-2.108,8.543-8.841,8.543-8.841l2.846-4.866h0c3.093-1.937,3.253,17.047,3.253,17.047L957.6,418.446l10.25-2.762S988.275,493.311,986.527,499.037Z" transform="translate(-481.459 -206.588)" opacity="0.1"/>
        <path id="Path_106" data-name="Path 106" d="M1000.385,490.29c-14.1,6.833-39.73.5-39.73.5-2.578,2.315-9.368,5.726-9.368,5.726l-3.707-44.781c-2.361-6.038-3.289-37.671-3.289-37.671s2.98-23.6,4.218-26.013a3.791,3.791,0,0,0-.242-2.878,35.611,35.611,0,0,1-2.258-16.851l.99-8.207.273-2.3c4.841-2.113,8.548-8.845,8.548-8.845l2.578-4.408,4.743-8.121,2.248-3.844.382.337,2.913,2.576,3.094,2.516c4.037,3.321,11.013,9.168,14.611,12.745,3.166,3.15,4.166,15.4,4.455,24.625.191,6.073.077,10.833.077,10.833-3.191,5.127,5.156,46.291,5.156,46.291C998.018,440.477,1000.385,490.29,1000.385,490.29Z" transform="translate(-482.041 -194.747)" fill="#fff"/>
        <path id="Path_107" data-name="Path 107" d="M959.822,364.239s-9.677,17.978-8.553,24.811,4.321,14.566,2.779,16.373a5.746,5.746,0,0,1-4.532,2.209c-1.547.1-5.671,2.913-5.671,3.215s-3.81.3-7.218,1.711a45.844,45.844,0,0,1-8.44,2.209s-9.8-.3-10.708.6-1.851,6.325.1,10.647,4.125,7.547,5.764,8.136,12.044-2.813,20.484-3.618,17.6-7.331,17.6-7.331,10.09-3.522,11.858-9.444-2.16-38.471-2.16-38.471S968.159,360.118,959.822,364.239Z" transform="translate(-468.546 -210.114)" opacity="0.03"/>
        <path id="Path_108" data-name="Path 108" d="M957.436,361.241s-9.677,17.983-8.543,24.811,4.321,14.566,2.774,16.378a5.72,5.72,0,0,1-4.527,2.209c-1.547.1-5.671,2.913-5.671,3.215s-3.81.3-7.218,1.706a46.289,46.289,0,0,1-8.44,2.209s-9.8-.3-10.7.6-1.856,6.33.1,10.647,4.125,7.547,5.764,8.136,12.044-2.813,20.484-3.613,17.6-7.336,17.6-7.336,10.085-3.522,11.832-9.439-2.16-38.477-2.16-38.477S965.773,357.125,957.436,361.241Z" transform="translate(-467.397 -208.625)" opacity="0.03"/>
        <path id="Path_109" data-name="Path 109" d="M959.242,362.446s-9.677,17.983-8.543,24.811,4.321,14.566,2.779,16.373a5.719,5.719,0,0,1-4.532,2.214c-1.547.1-5.671,2.913-5.671,3.21s-3.805.3-7.218,1.711a45.944,45.944,0,0,1-8.44,2.209s-9.8-.3-10.708.6-1.851,6.33.1,10.647,4.125,7.547,5.764,8.136,12.044-2.813,20.484-3.618,17.6-7.331,17.6-7.331,10.09-3.522,11.858-9.444-2.135-38.471-2.135-38.471S967.573,358.35,959.242,362.446Z" transform="translate(-468.27 -209.226)" fill="#fff"/>
        <path id="Path_110" data-name="Path 110" d="M994.318,458.557s-7.734-1.51-5.042,1.006,2.676,4.72,5.97,4.619S994.318,458.557,994.318,458.557Z" transform="translate(-503.557 -257.104)" opacity="0.1"/>
        <path id="Path_111" data-name="Path 111" d="M1024.082,566.58s-3.5,2.31,3.191,7.633S1024.082,566.58,1024.082,566.58Z" transform="translate(-520.252 -310.998)" opacity="0.1"/>
        <path id="Path_112" data-name="Path 112" d="M1011.859,604.31c0,.3-1.237,11.07,3.393,13.761S1011.859,604.31,1011.859,604.31Z" transform="translate(-514.7 -329.743)" opacity="0.1"/>
        <path id="Path_113" data-name="Path 113" d="M861.164,436.59c-3.733.126-11.8,1.238-7.615,8.851,3.7,6.737,9.909,2.234,13.4-1.182A12.885,12.885,0,0,0,861.164,436.59Z" transform="translate(-437.515 -246.413)" fill="#ffb0b1"/>
        <path id="Path_114" data-name="Path 114" d="M881.39,451Z" transform="translate(-451.57 -253.573)" fill="#ffb0b1"/>
        <path id="Path_115" data-name="Path 115" d="M880.74,451.556l.155-.156Z" transform="translate(-451.255 -253.772)" fill="#ffb0b1"/>
        <path id="Path_116" data-name="Path 116" d="M974.319,338.629c-3.96,2.642-7.28,4.871-7.929,5.333-1.774,1.283-5.156,8.815-7.337,12.659-1.737,3.094-7.383,3.889-9.512,4.086l.273-2.3c4.841-2.113,8.548-8.846,8.548-8.846l9.569-16.373,3.295,2.923Z" transform="translate(-484.584 -195.04)" opacity="0.1"/>
        <path id="Path_117" data-name="Path 117" d="M974.319,338.029c-3.96,2.642-7.28,4.871-7.929,5.339-1.774,1.278-5.156,8.81-7.337,12.654-1.737,3.094-7.383,3.889-9.512,4.086l.273-2.3c4.841-2.113,8.548-8.846,8.548-8.846l9.569-16.373,3.295,2.913S972.462,336.5,974.319,338.029Z" transform="translate(-484.584 -194.742)" fill="#dce7ff"/>
        <path id="Path_118" data-name="Path 118" d="M954.082,303.185a14.649,14.649,0,0,1-2.691,8.458,15.518,15.518,0,0,1-19.276,4.971,14.8,14.8,0,0,1-7.929-17.853,15.314,15.314,0,0,1,16.9-10.329A15.042,15.042,0,0,1,954.082,303.185Z" transform="translate(-471.968 -172.718)" fill="#ffb0b1"/>
        <path id="Path_119" data-name="Path 119" d="M981.812,353.375a13.4,13.4,0,0,1-4.934-5.173c-.861-1.66-1.433-3.577-2.9-4.755-1.325-1.057-3.093-1.313-4.743-1.786-5.424-1.565-9.971-6.4-10.141-11.91-.082-2.6.748-5.188.371-7.759a8.486,8.486,0,0,0-1.722-4,13.9,13.9,0,0,0-1.49-1.565c-.722-.664-1.48-1.308-2.14-2.013a7.829,7.829,0,0,1-1.083-1.434,6.822,6.822,0,0,1-.593-1.333c-1.031-3.079-.093-6.732-1.227-9.847l-.062-.171a3.252,3.252,0,0,0-2.511-2.3c-1.212-.086-2.248.9-3.4,1.333-2.418.916-5.027-.644-7.043-2.234s-4.29-3.406-6.852-3.054c-1.7.237-3.037,1.364-4.6,1.947a6.572,6.572,0,0,1-1.088.307,15.361,15.361,0,0,1,17.09-9.1,15.018,15.018,0,0,1,12.386,14.655,14.428,14.428,0,0,1-.335,3.115c.026.07.052.136.083.206.6,1.509,1.273,3.059,1.866,4.4l2.913,2.576L962.746,316c4.037,3.321,11.013,9.168,14.611,12.745C980.523,331.9,981.513,344.152,981.812,353.375Z" transform="translate(-473.011 -172.718)" opacity="0.1"/>
        <path id="Path_120" data-name="Path 120" d="M923.434,276.823c.737-1.464,1.1-3.1,1.985-4.493a10.965,10.965,0,0,1,5.872-4.081c6.058-2.038,18.86-5,22.685,0a10.962,10.962,0,0,0,2.418,2.818,18.183,18.183,0,0,0,2.624,1.152,9.829,9.829,0,0,1,4.826,6.038c.83,2.486,1.078,5.152,1.686,7.713a55.844,55.844,0,0,0,3.506,9.495c1.6,3.653,3.3,7.442,6.4,10.023,4.223,3.522,5.156,8.508,9.074,12.373,4.64,4.589,4.491,12.161,2.1,18.174a4.89,4.89,0,0,0-.547,2.455,4.79,4.79,0,0,0,1.366,2.274l2.537,2.793a14.387,14.387,0,0,1-15.586-7.014c-.861-1.66-1.433-3.572-2.908-4.755-1.32-1.057-3.094-1.308-4.738-1.781-5.424-1.57-9.971-6.405-10.141-11.92-.082-2.591.748-5.183.371-7.749a8.447,8.447,0,0,0-1.727-4.025c-1.418-1.806-3.557-3.019-4.712-5.032-1.954-3.366-.469-7.739-1.877-11.351a3.259,3.259,0,0,0-2.511-2.3c-1.212-.086-2.248.9-3.408,1.333-2.413.916-5.022-.639-7.038-2.234s-4.29-3.406-6.857-3.049c-1.7.231-3.032,1.359-4.594,1.947-1.155.433-3.5.82-4.506-.131C917.6,283.58,922.542,278.614,923.434,276.823Z" transform="translate(-469.888 -161.41)" fill="#591d4b"/>
        <path id="Path_121" data-name="Path 121" d="M975.707,339.715c-.866-1.66-1.433-3.572-2.908-4.75-1.32-1.057-3.093-1.313-4.743-1.786-5.419-1.565-9.966-6.4-10.141-11.915-.083-2.591.748-5.187.376-7.754a8.5,8.5,0,0,0-1.727-4c-1.423-1.806-3.563-3.019-4.713-5.032-1.954-3.361-.469-7.734-1.882-11.351a3.269,3.269,0,0,0-2.506-2.3c-1.206-.091-2.253.9-3.408,1.338-2.413.916-5.027-.644-7.037-2.234s-4.295-3.406-6.857-3.054c-1.7.236-3.037,1.364-4.594,1.947-1.155.433-3.5.825-4.511-.126-2.124-2.013,2.82-6.969,3.707-8.75a47.607,47.607,0,0,1,1.99-4.493c.046-.075.1-.151.15-.226a8.051,8.051,0,0,0-1.7,1.882,48.29,48.29,0,0,0-1.985,4.493c-.892,1.781-5.836,6.752-3.707,8.75,1.031.956,3.351.564,4.506.131,1.547-.589,2.9-1.716,4.594-1.947,2.578-.357,4.846,1.459,6.857,3.049s4.64,3.15,7.043,2.234c1.155-.438,2.165-1.424,3.4-1.333a3.252,3.252,0,0,1,2.511,2.3c1.408,3.613-.077,7.985,1.877,11.351,1.155,1.977,3.294,3.215,4.712,5.032a8.445,8.445,0,0,1,1.727,4.025c.376,2.566-.454,5.157-.371,7.749.17,5.535,4.718,10.35,10.141,11.92,1.634.473,3.418.725,4.738,1.781,1.48,1.182,2.062,3.094,2.908,4.755a14.387,14.387,0,0,0,15.586,7.014l-1.2-1.318A14.477,14.477,0,0,1,975.707,339.715Z" transform="translate(-469.783 -166.243)" opacity="0.1"/>
        <path id="Path_122" data-name="Path 122" d="M953.385,353.055c-.675,1.006-2.609,6.159-4.223,10.657-1.511-.574-2.882-4.232-2.882-4.232l8.053-11.18C955.158,349.407,954.617,351.243,953.385,353.055Z" transform="translate(-483.005 -202.547)" opacity="0.1"/>
        <path id="Path_123" data-name="Path 123" d="M953.985,352.46c-.675,1.006-2.609,6.159-4.223,10.657-1.511-.569-2.882-4.232-2.882-4.232l8.053-11.175C955.758,348.812,955.217,350.653,953.985,352.46Z" transform="translate(-483.295 -202.254)" fill="#dce7ff"/>
        <path id="Path_124" data-name="Path 124" d="M865.586,444.088l-4.465-13.741a1.256,1.256,0,0,1,.084-.981,1.307,1.307,0,0,1,.772-.634h0a1.326,1.326,0,0,1,1.65.835l4.465,13.726-.443,2.873Z" transform="translate(-441.721 -242.48)" fill="#be8b87"/>
        <path id="Path_125" data-name="Path 125" d="M861.743,429.159h0a1.327,1.327,0,0,1,1.655.835l4.465,13.726-.335,2.154.325.332.443-2.873-4.491-13.726a1.326,1.326,0,0,0-1.65-.835h0a1.317,1.317,0,0,0-.686.5A1.824,1.824,0,0,1,861.743,429.159Z" transform="translate(-441.921 -242.5)" fill="#fff" opacity="0.1"/>
        <path id="Path_126" data-name="Path 126" d="M822.6,399.915l2.506-.775-.366,2.355-.077.518-.732-.745Z" transform="translate(-398.735 -198.306)" fill="#efc8c4"/>
        <path id="Path_127" data-name="Path 127" d="M872.42,461.837a.513.513,0,0,1,.16-.131.231.231,0,0,1,.242,0,.624.624,0,0,1,.088.136.444.444,0,0,0,.32.206l-.077.5Z" transform="translate(-447.225 -258.875)" fill="#727a9c"/>
        <path id="Path_128" data-name="Path 128" d="M861.13,441.7s8.956-.05,6.847,3.668a8.054,8.054,0,0,1-5.4,4.166Z" transform="translate(-441.756 -248.952)" fill="#ffb0b1"/>
      </g>
    </g>
  </g>
</svg>
